<mxfile host="app.diagrams.net" modified="2023-09-21T15:24:36.252Z" agent="Mozilla/5.0 (X11; Linux x86_64) AppleWebKit/537.36 (KHTML, like Gecko) Chrome/117.0.0.0 Safari/537.36" version="21.7.5" etag="DV0ZTfRYjqACUg2_nMtU" type="github">
  <diagram name="Page-1" id="QT7aEz45Z5m9muVLdWQD">
    <mxGraphModel>
      <root>
        <mxCell id="0" />
        <mxCell id="1" parent="0" />
      </root>
    </mxGraphModel>
  </diagram>
</mxfile>
